<?xml version="1.0" standalone="no"?>
<!DOCTYPE svg PUBLIC "-//W3C//DTD SVG 20010904//EN"
 "http://www.w3.org/TR/2001/REC-SVG-20010904/DTD/svg10.dtd">
<svg version="1.0" xmlns="http://www.w3.org/2000/svg"
 width="827.000000pt" height="827.000000pt" viewBox="0 0 827.000000 827.000000"
 preserveAspectRatio="xMidYMid meet">
<metadata>
Created by potrace 1.12, written by Peter Selinger 2001-2015
</metadata>
<g transform="translate(0.000000,827.000000) scale(0.100000,-0.100000)"
fill="#000000" stroke="none">
<path d="M0 4135 l0 -4135 4135 0 4135 0 0 4135 0 4135 -4135 0 -4135 0 0
-4135z m4010 3200 c32 -29 23 -90 -25 -162 -61 -92 -175 -199 -535 -506 -47
-40 17 2 445 285 138 91 267 174 288 184 51 24 71 12 75 -48 l3 -45 -133 -95
c-73 -52 -198 -139 -278 -193 -80 -54 -149 -102 -154 -106 -13 -12 126 48 259
111 240 114 364 162 465 180 77 14 113 1 108 -37 -3 -25 -13 -32 -91 -64 -65
-27 -93 -44 -106 -65 -11 -18 -52 -48 -105 -77 -48 -27 -118 -67 -154 -89
l-67 -39 73 4 c51 3 78 10 92 22 12 11 42 20 72 23 29 2 193 46 363 97 362
109 477 134 639 142 107 5 120 4 132 -12 23 -31 0 -50 -106 -90 -55 -21 -99
-39 -97 -41 2 -2 48 0 103 6 54 5 250 12 434 16 352 7 380 5 380 -35 0 -25
-16 -36 -70 -52 -56 -16 -53 -13 -45 -38 6 -20 14 -21 130 -21 114 0 125 2
135 20 16 30 58 26 66 -5 6 -23 11 -25 63 -25 81 -1 131 -15 160 -47 l26 -27
-28 24 c-23 20 -40 24 -117 28 -50 3 -90 2 -90 -2 0 -22 170 -406 213 -481 28
-49 62 -112 75 -140 47 -96 91 -195 87 -195 -2 0 -34 44 -71 98 -37 53 -94
131 -126 172 -31 42 -73 109 -93 150 -19 41 -33 66 -30 55 2 -11 22 -90 44
-175 54 -206 69 -300 76 -466 9 -193 -8 -236 -77 -202 -98 47 -213 178 -394
450 -80 120 -149 218 -154 218 -19 0 -63 -170 -100 -392 -22 -130 -40 -245
-40 -255 0 -11 25 -51 55 -89 81 -101 208 -281 243 -344 44 -79 46 -124 8
-141 -21 -10 -41 -4 -143 41 -150 66 -243 117 -338 185 -128 92 -57 12 155
-175 142 -126 220 -202 236 -233 21 -39 4 -67 -39 -67 -61 0 -137 48 -256 164
-191 186 -224 221 -266 279 -22 31 -43 56 -46 57 -4 0 -7 -41 -8 -92 -2 -100
-24 -275 -45 -356 -7 -29 -11 -53 -9 -56 2 -2 21 0 41 5 44 10 108 11 151 3
42 -9 125 -84 144 -132 12 -30 31 -49 79 -79 116 -73 217 -161 259 -225 46
-71 53 -100 10 -40 -17 22 -49 53 -73 69 -36 25 -206 123 -212 123 -1 0 -2
-80 -2 -177 0 -197 -10 -256 -63 -361 -40 -79 -142 -230 -180 -266 -17 -17
-31 -40 -31 -52 0 -27 -11 -35 -65 -50 -39 -10 -40 -11 -39 -55 0 -24 17 -124
38 -222 27 -131 36 -197 34 -247 -2 -53 -6 -66 -15 -58 -19 15 -68 179 -88
291 -20 113 -35 116 -46 11 -6 -63 -8 -67 -59 -112 l-53 -48 0 -274 c0 -151 4
-428 10 -615 11 -367 17 -414 88 -709 38 -154 36 -180 -13 -174 -19 2 -32 13
-44 38 -26 53 -106 468 -118 615 -15 163 -8 927 9 999 6 27 10 51 8 53 -2 1
-88 -75 -192 -170 -244 -224 -260 -236 -390 -309 -60 -33 -126 -76 -145 -93
-19 -18 -80 -61 -135 -96 -55 -34 -153 -103 -219 -151 -65 -49 -138 -100 -163
-115 l-44 -26 6 -206 c4 -113 13 -260 21 -326 8 -66 14 -181 14 -256 0 -123
-2 -139 -21 -163 -28 -35 -66 -35 -80 1 -10 27 -11 27 -47 -39 -20 -37 -37
-66 -38 -65 -1 1 7 45 18 97 14 71 21 154 25 331 l6 236 -47 104 c-26 57 -63
130 -82 161 l-35 58 -50 0 c-27 0 -64 6 -83 14 -46 19 -186 159 -230 231 -21
33 -50 71 -66 85 -18 16 -40 58 -63 120 -20 52 -58 148 -85 212 -27 64 -62
151 -77 193 -24 66 -34 80 -69 102 -145 91 -202 163 -237 301 -27 107 -24 148
22 311 l41 144 -30 24 c-35 27 -97 176 -177 423 -26 80 -51 149 -56 154 -5 6
-5 14 0 20 6 7 5 34 -1 66 -5 30 -8 92 -6 138 2 69 6 86 22 98 24 17 28 17 49
2 10 -8 25 -48 36 -102 11 -49 24 -92 30 -95 5 -4 15 -20 23 -36 11 -26 13 5
19 220 4 138 14 309 23 380 17 135 61 371 77 413 5 14 8 26 6 28 -2 2 -68 -25
-148 -60 -157 -69 -324 -133 -379 -145 -20 -5 -100 -54 -184 -115 -82 -59
-162 -114 -178 -122 -55 -28 -95 9 -60 55 20 27 344 264 638 466 101 70 184
129 184 131 0 2 -24 -6 -52 -18 -145 -59 -362 -127 -387 -122 -20 4 -42 -3
-77 -25 -82 -50 -160 -76 -189 -63 -15 7 -25 20 -25 32 0 25 25 50 114 113 37
26 64 52 61 57 -18 29 11 53 143 116 143 69 206 104 199 110 -2 2 -23 -3 -47
-11 -61 -22 -97 -19 -111 7 -10 19 -8 25 25 52 47 40 46 51 -1 23 l-38 -22 21
33 c48 76 101 125 229 212 75 50 135 93 133 95 -3 4 -50 -7 -378 -85 -332 -79
-366 -85 -395 -66 -60 39 -14 90 160 175 126 62 231 105 411 168 l109 38 -160
5 c-167 6 -216 18 -223 53 -11 58 109 137 803 523 439 243 719 372 939 430
114 30 222 30 256 -1z"/>
<path d="M3825 7275 c-5 -2 -50 -15 -100 -30 -209 -63 -507 -198 -825 -375
-370 -207 -581 -327 -680 -389 l-105 -66 55 -8 c56 -9 366 6 490 23 66 10 325
84 344 99 6 5 49 39 95 76 110 88 190 126 255 123 45 -2 52 2 114 53 217 179
406 359 456 434 38 58 35 65 -31 64 -32 0 -62 -2 -68 -4z"/>
<path d="M5005 6754 c-89 -20 -394 -108 -391 -112 7 -7 242 30 286 45 57 19
194 73 199 79 8 7 -34 2 -94 -12z"/>
<path d="M3943 6639 c-57 -27 -103 -54 -103 -59 0 -16 8 -13 99 37 161 86 162
98 4 22z"/>
<path d="M6150 6543 c-8 -4 -20 -13 -26 -22 -8 -10 -34 -16 -82 -19 l-70 -4
-6 -37 c-4 -20 -20 -100 -38 -179 l-31 -143 33 -47 c18 -26 96 -141 173 -256
92 -139 165 -236 219 -292 45 -46 86 -84 92 -84 8 0 9 42 5 147 -7 161 -22
236 -109 573 -28 107 -56 234 -62 283 l-12 87 -36 -1 c-19 0 -42 -3 -50 -6z"/>
<path d="M5878 6494 c-5 -4 -8 -26 -7 -48 l1 -41 9 33 c11 37 9 68 -3 56z"/>
<path d="M5756 6479 c-9 -25 -26 -132 -22 -136 2 -2 11 28 21 67 10 39 15 74
11 77 -3 3 -8 0 -10 -8z"/>
<path d="M5455 6457 c-93 -11 -171 -21 -173 -22 -1 -1 8 -29 20 -62 18 -48 34
-69 73 -100 91 -72 146 -147 147 -203 1 -39 -16 -58 -55 -62 l-32 -3 45 -21
c25 -12 46 -21 47 -20 1 1 7 57 13 126 6 69 15 142 21 162 8 33 50 80 80 90 6
2 17 34 24 71 l13 67 -27 -1 c-14 -1 -102 -11 -196 -22z"/>
<path d="M4065 6450 l-70 -18 49 -1 c52 -1 126 17 126 31 0 11 -24 9 -105 -12z"/>
<path d="M2725 6355 c-161 -35 -891 -312 -830 -315 6 0 57 12 115 26 58 14
223 52 368 84 l263 58 52 45 c121 104 133 117 112 116 -11 0 -47 -7 -80 -14z"/>
<path d="M5040 6350 c-13 -24 -28 -27 -300 -45 -124 -9 -230 -18 -237 -20 -8
-2 -9 -13 -4 -32 7 -25 14 -29 77 -41 226 -42 391 -78 559 -121 105 -27 191
-48 193 -46 2 1 -19 31 -45 66 -27 35 -59 93 -73 128 -24 61 -27 64 -92 97
-65 33 -68 33 -78 14z"/>
<path d="M3652 6349 c-29 -5 -63 -15 -75 -21 l-22 -13 25 -3 c36 -6 184 29
168 40 -15 9 -24 9 -96 -3z"/>
<path d="M2901 6174 c-24 -18 -41 -34 -37 -34 9 0 96 59 96 65 0 11 -18 2 -59
-31z"/>
<path d="M5380 6154 c0 -15 37 -61 44 -54 3 3 -6 19 -19 35 -13 17 -24 25 -25
19z"/>
<path d="M3581 6141 c-14 -4 -26 -12 -29 -20 -3 -9 4 -9 27 3 17 9 31 19 31
21 0 3 -1 5 -2 4 -2 -1 -14 -4 -27 -8z"/>
<path d="M4135 6116 c-76 -39 -83 -65 -30 -116 37 -36 40 -36 26 3 -7 18 -5
31 6 47 19 27 51 23 160 -20 61 -23 71 -25 63 -10 -16 31 -131 130 -148 129
-9 -1 -44 -16 -77 -33z"/>
<path d="M4367 6055 c47 -47 88 -84 90 -81 8 8 -81 146 -97 150 -83 24 -83 21
7 -69z"/>
<path d="M3868 6021 c-36 -9 -70 -19 -73 -23 -4 -4 -5 -19 -1 -33 6 -24 9 -25
84 -25 78 0 122 7 122 19 0 3 -15 22 -33 42 l-32 36 -67 -16z"/>
<path d="M3680 6014 c0 -3 5 -14 10 -25 8 -13 7 -25 0 -39 -9 -17 -8 -20 10
-20 16 0 20 5 16 18 -3 9 -8 29 -12 45 -5 23 -24 39 -24 21z"/>
<path d="M4785 5975 c17 -15 45 -40 63 -57 37 -36 42 -30 10 13 -13 17 -41 40
-63 50 l-40 20 30 -26z"/>
<path d="M5200 5988 c56 -26 173 -78 177 -78 2 0 -1 8 -6 18 -8 15 -90 47
-171 66 l-25 6 25 -12z"/>
<path d="M5100 5942 c0 -5 15 -26 34 -48 18 -21 40 -53 49 -70 25 -49 34 -52
122 -42 117 14 121 20 37 62 -40 20 -94 45 -120 55 -26 11 -64 27 -84 35 -21
9 -38 13 -38 8z"/>
<path d="M5470 5889 c0 -20 21 -49 35 -49 25 0 17 36 -10 48 -17 8 -25 8 -25
1z"/>
<path d="M4315 5884 c6 -2 40 -12 78 -23 47 -13 67 -15 67 -7 0 26 -26 36 -89
35 -37 0 -61 -2 -56 -5z"/>
<path d="M4988 5860 c17 -29 42 -48 42 -31 0 12 -40 61 -50 61 -5 0 -1 -13 8
-30z"/>
<path d="M4030 5861 c8 -5 26 -12 40 -16 22 -7 23 -6 11 9 -7 9 -25 16 -40 16
-19 -1 -22 -3 -11 -9z"/>
<path d="M5634 5765 c-16 -72 -18 -94 -7 -80 20 29 34 91 31 137 -3 36 -6 29
-24 -57z"/>
<path d="M3669 5824 c57 -13 106 -22 108 -20 3 2 0 14 -7 25 -10 19 -19 21
-108 20 l-97 -1 104 -24z"/>
<path d="M3220 5800 l-55 -40 48 0 c33 0 47 4 47 14 0 7 7 19 15 26 16 13 21
40 8 40 -5 0 -33 -18 -63 -40z"/>
<path d="M3960 5795 c0 -2 20 -16 44 -30 48 -28 60 -47 50 -77 -5 -17 -13 -19
-50 -16 -74 6 -35 -8 121 -42 83 -18 170 -39 195 -46 24 -7 45 -12 47 -10 10
10 -148 108 -262 162 -136 64 -145 68 -145 59z"/>
<path d="M4361 5754 c55 -57 219 -196 219 -185 0 15 -60 164 -69 174 -9 9
-146 47 -170 47 -9 0 -1 -14 20 -36z"/>
<path d="M3555 5757 c19 -14 293 -70 278 -57 -5 4 -66 19 -138 35 -71 15 -137
30 -145 33 -8 2 -6 -2 5 -11z"/>
<path d="M4776 5683 c10 -44 42 -105 75 -143 l30 -35 -14 35 c-27 66 -81 170
-89 170 -5 0 -6 -12 -2 -27z"/>
<path d="M2908 5583 c-137 -92 -162 -112 -153 -122 6 -5 215 112 215 121 0 5
5 8 12 8 12 0 148 79 148 86 0 2 -18 4 -40 4 -33 0 -61 -15 -182 -97z"/>
<path d="M3223 5642 c-66 -41 -70 -52 -19 -52 17 0 117 -18 221 -39 105 -21
191 -38 192 -37 5 4 -173 123 -214 145 -63 32 -107 28 -180 -17z"/>
<path d="M4978 5644 c17 -22 39 -47 48 -55 34 -27 -2 24 -42 61 l-38 35 32
-41z"/>
<path d="M2376 5625 c-33 -25 -54 -45 -48 -45 7 0 46 14 88 32 72 30 75 32 52
44 -13 7 -25 13 -28 13 -3 0 -32 -20 -64 -44z"/>
<path d="M5199 5612 c18 -36 90 -88 111 -80 16 5 -90 118 -111 118 -19 0 -19
0 0 -38z"/>
<path d="M5440 5620 c56 -29 70 -27 50 9 -8 17 -20 21 -58 21 l-47 -1 55 -29z"/>
<path d="M2985 5499 c-55 -33 -135 -78 -177 -100 l-78 -39 0 -76 c0 -42 -7
-128 -15 -192 -28 -218 -46 -447 -52 -656 l-6 -209 34 6 c19 3 64 9 101 13 58
5 67 9 70 28 3 18 -4 23 -47 32 l-50 11 29 12 c34 14 186 1 303 -25 72 -17 72
-17 295 20 122 21 226 40 230 42 4 3 -14 24 -41 48 -46 41 -53 43 -155 59 -67
11 -135 29 -184 49 l-77 33 50 3 c27 2 55 8 62 14 24 19 88 13 218 -22 39 -10
83 -22 99 -25 16 -3 56 -33 91 -66 l63 -60 63 11 c35 6 145 26 244 45 166 31
280 49 475 76 41 6 112 20 157 31 73 18 102 20 265 15 101 -4 197 -9 214 -13
l31 -6 16 69 c29 123 38 186 44 321 6 141 1 156 -36 103 -20 -28 -25 -29 -123
-36 -64 -4 -126 -3 -162 4 -40 7 -63 8 -70 1 -24 -24 -41 -12 -205 150 -36 36
-99 114 -140 173 -73 107 -74 107 -115 107 -22 0 -99 9 -171 20 -71 11 -141
20 -154 20 -42 0 -6 -25 84 -59 80 -31 85 -34 85 -62 0 -29 -5 -32 -64 -41
-16 -2 -7 -17 47 -76 70 -75 81 -104 47 -122 -28 -15 -73 6 -260 125 -85 54
-168 106 -185 116 -16 10 -106 34 -200 54 -206 44 -344 78 -448 111 -43 13
-83 24 -90 24 -7 -1 -57 -28 -112 -61z m157 -855 c67 -8 146 -21 173 -29 l50
-13 -107 -1 c-106 -1 -107 -1 -120 -28 -17 -36 -57 -39 -214 -19 -119 16 -144
25 -144 57 0 52 125 63 362 33z"/>
<path d="M4966 5515 c60 -146 195 -385 217 -385 6 0 25 11 44 26 31 24 32 26
19 52 -12 23 -218 265 -277 327 -20 20 -20 20 -3 -20z"/>
<path d="M5623 5521 c-10 -15 -9 -22 2 -31 13 -11 15 -7 15 19 0 36 -1 37 -17
12z"/>
<path d="M4545 5439 c19 -31 145 -197 159 -208 11 -9 10 1 -5 40 -30 79 -34
84 -101 135 -34 27 -58 41 -53 33z"/>
<path d="M5280 5441 c0 -13 59 -107 78 -124 19 -18 21 -17 61 30 47 55 49 63
19 64 -13 0 -53 8 -90 18 -38 9 -68 15 -68 12z"/>
<path d="M4845 5392 c19 -55 44 -92 117 -169 59 -63 67 -80 46 -101 -21 -21
-56 -13 -93 19 l-35 31 0 -31 c0 -27 4 -31 43 -42 47 -13 152 -18 162 -7 9 9
-40 79 -139 203 -125 154 -118 148 -101 97z"/>
<path d="M5499 5331 l-66 -89 35 -28 c65 -54 117 -93 123 -94 6 0 18 68 34
194 6 44 4 51 -21 77 -15 16 -30 29 -33 29 -3 0 -36 -40 -72 -89z"/>
<path d="M3992 5367 c15 -12 42 -31 59 -41 l31 -18 -18 28 c-25 40 -44 54 -73
54 l-26 -1 27 -22z"/>
<path d="M5706 5248 c-2 -7 -11 -51 -19 -98 -14 -79 -14 -86 1 -99 23 -18 256
-131 261 -125 9 8 -220 334 -235 334 -2 0 -6 -6 -8 -12z"/>
<path d="M2601 4825 c-7 -60 -16 -209 -21 -330 -12 -279 -12 -265 -1 -265 5 0
10 68 10 153 1 83 8 234 17 335 17 206 15 274 -5 107z"/>
<path d="M4705 4492 c-33 -11 -100 -24 -150 -31 -220 -28 -531 -82 -765 -132
-52 -12 -135 -30 -185 -40 -74 -16 -264 -48 -292 -49 -5 0 17 -11 47 -23 62
-25 81 -57 33 -57 -16 0 -52 -9 -82 -19 -29 -11 -78 -25 -109 -32 -80 -16
-204 -66 -222 -88 -11 -14 -34 -20 -88 -25 -66 -6 -73 -5 -70 11 2 9 12 20 23
23 49 13 54 21 43 85 -5 32 -11 61 -12 63 -5 5 -196 -17 -207 -24 -5 -3 -9
-97 -9 -210 l0 -204 24 0 c27 0 36 -16 36 -64 0 -17 7 -42 16 -54 13 -19 18
-21 32 -10 13 12 14 10 4 -9 -14 -26 -15 -25 72 -52 57 -18 93 -21 230 -21
182 0 198 5 309 83 68 49 164 99 272 142 66 27 81 29 250 33 147 4 187 1 217
-11 48 -20 78 -77 85 -165 4 -59 1 -78 -31 -167 -20 -55 -36 -101 -36 -102 0
-2 15 -3 33 -3 22 0 67 20 142 66 152 91 275 186 381 296 73 76 101 114 149
203 32 61 80 149 106 196 47 82 49 90 49 161 0 94 26 148 93 194 26 18 43 36
37 39 -6 4 -90 8 -188 11 -153 4 -185 2 -237 -14z"/>
<path d="M5431 4496 c2 -2 22 -11 44 -20 l40 -16 -25 20 c-14 11 -34 20 -44
20 -11 0 -17 -2 -15 -4z"/>
<path d="M5246 4391 c-32 -40 -85 -130 -130 -219 -41 -83 -105 -194 -141 -248
l-66 -97 11 -76 c14 -91 46 -154 115 -228 47 -49 54 -53 98 -53 45 0 46 1 41
28 -3 15 -11 61 -18 102 -12 71 -14 75 -42 81 -45 9 -54 17 -54 50 0 38 20 76
82 161 55 73 94 97 136 82 24 -9 27 -15 28 -58 1 -41 4 -51 22 -57 15 -6 22
-17 22 -36 1 -25 2 -26 14 -10 7 9 16 17 20 17 9 0 -2 -77 -24 -170 -10 -41
-21 -95 -25 -118 l-7 -44 25 17 c48 31 180 228 220 327 17 45 21 80 25 223 5
194 -6 267 -43 291 -29 19 -172 79 -219 92 -35 10 -35 10 -90 -57z"/>
<path d="M5108 4373 c-29 -32 -52 -72 -45 -80 6 -5 77 86 77 98 0 14 -4 11
-32 -18z"/>
<path d="M2930 4281 c0 -14 35 -19 87 -13 l48 6 -40 7 c-55 11 -95 11 -95 0z"/>
<path d="M3002 4193 c-16 -3 -22 -9 -18 -20 3 -8 6 -29 6 -47 l0 -33 123 40
122 40 -50 13 c-48 13 -135 16 -183 7z"/>
<path d="M4840 3733 c-37 -80 -131 -305 -128 -308 6 -5 283 -13 295 -8 7 3 -7
28 -37 64 -74 92 -112 171 -112 230 1 27 0 49 -2 49 -2 0 -9 -12 -16 -27z"/>
<path d="M5297 3744 c-3 -4 -21 -7 -39 -8 -27 -1 -34 -6 -37 -26 -4 -32 20
-200 29 -200 4 0 12 32 19 70 6 39 20 93 30 120 17 44 16 62 -2 44z"/>
<path d="M4669 3574 c-30 -34 -199 -160 -261 -197 -27 -15 -48 -29 -48 -31 0
-2 39 -1 87 2 78 5 92 9 133 38 38 27 51 47 83 120 20 48 36 88 34 90 -2 2
-14 -8 -28 -22z"/>
<path d="M5100 3355 c-104 -14 -248 -33 -358 -47 -82 -10 -83 -10 -102 -48
-11 -21 -33 -71 -49 -112 -34 -84 -135 -296 -183 -382 l-32 -59 37 -31 c30
-25 37 -38 37 -66 0 -24 10 -46 29 -69 l29 -35 28 19 c16 10 101 84 188 164
88 80 194 178 237 216 105 95 179 186 179 222 0 16 8 44 19 63 39 74 60 183
34 179 -4 -1 -46 -7 -93 -14z"/>
<path d="M4315 3265 c-80 -8 -136 -19 -167 -33 l-48 -21 0 -102 c0 -95 2 -105
32 -163 30 -56 157 -196 178 -196 10 0 197 375 223 445 9 26 12 48 6 63 -10
26 -29 26 -224 7z"/>
<path d="M4400 2485 c0 -36 5 -41 29 -26 11 7 10 13 -4 35 -10 14 -19 26 -21
26 -2 0 -4 -16 -4 -35z"/>
<path d="M3605 1881 c-3 -5 -19 -12 -36 -16 -16 -4 -29 -10 -27 -14 2 -5 29
-36 61 -71 l57 -63 0 86 c0 86 0 87 -24 87 -14 0 -27 -4 -31 -9z"/>
</g>
</svg>
